<?xml version="1.0" encoding="utf-8"?>
<svg version="1.1" id="Layer_1" xmlns="http://www.w3.org/2000/svg" x="0px" y="0px" width="100%" viewBox="0 0 859 460" enableBackground="new 0 0 859 460">
    <path fill="#FDB833" opacity="1.000000" stroke="none" 
        d="
        M860.000000,35.000000 
        C860.000000,168.689987 860.000000,302.379974 859.683777,436.424500 
        C851.673645,429.441040 843.625977,422.433807 836.376892,414.679932 
        C827.636169,405.330627 818.480835,404.212067 807.453247,410.366791 
        C798.697144,415.253754 789.276917,416.765717 779.142029,414.196106 
        C766.949036,411.104675 754.819397,410.827301 743.975891,418.913391 
        C736.949341,424.153168 729.257690,421.522339 721.538574,421.427338 
        C709.899780,421.284088 702.109741,416.643005 697.144531,406.363342 
        C694.387207,400.654510 690.433411,396.779205 683.202271,397.685608 
        C679.976501,398.089905 676.594116,397.099792 673.273193,396.920135 
        C666.371460,396.546692 659.998901,395.248749 654.474182,390.401367 
        C650.538391,386.948181 645.642090,382.120117 641.321411,382.265747 
        C636.949829,382.413025 632.249207,387.431610 628.597473,391.194427 
        C621.454102,398.555023 613.708618,400.600800 604.014221,396.976807 
        C589.399902,391.513672 574.948853,391.959808 560.716248,398.916992 
        C558.497009,400.001831 555.179016,399.706818 552.615662,399.065063 
        C542.935181,396.641449 533.503723,392.820312 523.705383,391.364655 
        C508.748413,389.142670 493.574371,388.303223 478.466125,387.258301 
        C476.049042,387.091156 472.821747,388.235901 471.118103,389.929871 
        C463.113068,397.889465 454.665833,404.641663 443.135162,406.982788 
        C435.999207,408.431641 429.022797,410.862152 422.138153,413.311310 
        C408.684631,418.097382 395.314026,423.122375 381.968750,428.205048 
        C370.257416,432.665375 359.483826,431.378387 349.550781,423.599792 
        C346.276947,421.036102 342.276672,419.113495 339.706299,415.993439 
        C332.799164,407.609192 324.520905,405.844666 314.665131,409.253204 
        C308.801819,411.281006 303.551880,410.445435 299.146790,405.926208 
        C292.779541,399.393951 285.364899,398.196381 277.018066,401.350250 
        C267.041962,405.119751 258.094543,404.006622 250.021255,396.446167 
        C248.474243,394.997375 245.141724,394.581848 242.838638,394.955933 
        C228.233902,397.328186 213.683899,400.965302 198.795105,398.198334 
        C188.072464,396.205627 180.546921,399.377472 176.091400,409.501740 
        C175.299149,411.301971 173.913071,412.840515 172.803864,414.501648 
        C166.996216,423.199188 166.940704,423.320618 157.541214,418.991882 
        C137.847198,409.922333 117.459312,404.771698 95.632538,407.923065 
        C87.973701,409.028839 81.642868,407.573486 77.006454,400.850922 
        C75.610306,398.826630 73.661583,397.112579 71.725113,395.556122 
        C70.382156,394.476654 68.701088,393.477600 67.042351,393.193024 
        C61.306995,392.209045 55.531261,391.346375 49.735264,390.898804 
        C47.978874,390.763214 45.546516,391.605133 44.374966,392.876129 
        C32.762482,405.474579 21.358744,418.265289 9.872382,430.980347 
        C7.839374,433.230774 5.697645,435.383026 3.206615,438.000366 
        C3.206615,302.866119 3.206615,168.664780 3.206615,34.363651 
        C3.819638,34.519169 4.225353,34.494881 4.390563,34.682438 
        C9.783050,40.804405 15.793293,46.510925 20.346962,53.207264 
        C25.003696,60.055161 30.360071,61.509495 37.502796,58.608322 
        C48.022942,54.335331 56.865520,56.204292 64.753693,64.670311 
        C67.674400,67.804977 71.898399,70.939644 75.931046,71.595245 
        C87.820747,73.528198 98.715462,77.383263 108.686150,84.086655 
        C111.440025,85.938118 114.318550,87.753792 117.391693,88.925331 
        C119.273727,89.642799 121.915947,89.770874 123.729149,89.006653 
        C129.701813,86.489311 135.423035,83.381935 141.307129,80.643585 
        C142.911194,79.897072 144.801453,79.100777 146.470398,79.261513 
        C162.649078,80.819695 179.075729,81.036514 194.332550,87.856293 
        C197.352615,89.206261 200.578949,90.196365 203.804459,90.947510 
        C205.783615,91.408394 208.077408,91.587029 209.997391,91.054337 
        C220.091415,88.253815 230.056778,84.977989 240.186356,82.323334 
        C243.765320,81.385399 247.788376,81.060677 251.425064,81.629608 
        C261.809540,83.254173 271.741638,83.402100 281.524078,78.453865 
        C287.571686,75.394821 294.317413,73.745323 300.610596,71.128418 
        C303.282562,70.017326 306.179321,68.533859 307.972321,66.384186 
        C314.798492,58.200008 322.464752,54.248482 332.893707,59.536930 
        C334.042053,60.119232 335.464844,60.265572 336.780640,60.379303 
        C337.856903,60.472328 339.323517,60.633968 340.002502,60.050293 
        C350.062195,51.402672 363.681549,46.550964 369.106476,32.921764 
        C369.438019,32.088715 370.232147,31.439779 371.005341,30.458603 
        C381.086578,37.204655 390.864288,43.747585 400.953613,50.499027 
        C405.494965,45.645721 409.652130,40.899693 414.191650,36.552982 
        C415.412628,35.383865 418.032501,34.597729 419.609619,35.045860 
        C434.807556,39.364357 449.948151,43.894341 465.021606,48.629761 
        C466.953918,49.236820 468.921539,51.053440 469.994049,52.837898 
        C473.849762,59.253040 477.674622,65.732376 480.848877,72.498154 
        C483.795380,78.778450 488.635559,81.876312 494.634796,85.041977 
        C507.558136,91.861328 519.700928,93.151855 532.459473,85.179337 
        C534.033020,84.196053 537.348267,84.667969 539.190552,85.678947 
        C546.916504,89.918724 554.304565,94.769943 561.982483,99.102936 
        C567.596863,102.271400 573.195557,105.893257 579.279358,107.725563 
        C598.382019,113.478836 617.758911,118.315742 636.917542,123.892685 
        C641.662109,125.273788 644.252869,124.144142 647.491699,120.570137 
        C655.971130,111.213181 662.935791,100.451813 675.756714,95.358002 
        C687.394897,90.734108 698.286072,84.734726 711.489685,87.390106 
        C712.962646,87.686317 715.365356,85.862854 716.603516,84.401184 
        C722.842957,77.035416 728.772461,69.407600 734.980896,62.014622 
        C736.131104,60.644882 738.081116,59.025955 739.629150,59.059013 
        C750.543030,59.292095 761.757629,58.576859 771.472412,65.004761 
        C781.693909,71.767967 791.845703,72.606316 802.205444,65.457825 
        C802.741699,65.087791 803.406311,64.772667 804.041748,64.700424 
        C806.724670,64.395401 809.555603,63.539806 812.084778,64.069046 
        C821.143127,65.964569 830.100769,68.341713 839.291504,70.584312 
        C840.138977,69.106888 841.035645,67.522301 841.952332,65.949387 
        C847.965881,55.631527 853.983582,45.316162 860.000000,35.000000 
    z"/>
    <path fill="#FAF8F4" opacity="1.000000" stroke="none" 
    d="
    M860.000000,444.555847 
    C854.973694,440.081787 850.130188,434.957428 844.875610,430.296661 
    C838.053772,424.245789 830.968689,418.483276 823.824402,412.814056 
    C822.810425,412.009430 820.691833,411.973297 819.314087,412.372955 
    C815.818726,413.386902 812.240601,414.462952 809.075195,416.204132 
    C798.249817,422.158691 786.940613,422.092072 775.330750,419.586456 
    C774.842224,419.481018 774.351562,419.385559 773.864014,419.275757 
    C765.004089,417.280609 756.275146,417.067871 748.777771,423.074921 
    C739.120117,430.812805 728.512329,427.523407 717.829163,426.971924 
    C706.675720,426.396210 698.521606,422.466125 694.064514,412.003723 
    C691.041687,404.908020 685.353455,402.944153 678.172607,402.994995 
    C673.196533,403.030212 668.196289,402.433899 663.245300,401.813141 
    C661.375916,401.578735 659.415771,400.779327 657.840027,399.724854 
    C652.455200,396.121307 647.222778,392.289948 641.617371,388.322662 
    C635.054260,393.435944 628.648865,398.661499 621.951843,403.481964 
    C620.232666,404.719421 617.451355,405.463959 615.401306,405.092438 
    C605.431030,403.285431 595.568115,400.891144 585.608765,399.014618 
    C583.160828,398.553375 580.127686,398.502228 577.987122,399.543976 
    C564.261169,406.224121 550.738464,406.718872 536.440918,400.840424 
    C521.405579,394.658630 504.887634,396.619934 489.238434,393.787781 
    C479.146820,391.961395 471.983978,394.888458 465.934692,402.502899 
    C462.710114,406.561737 458.160706,408.435455 453.305298,409.918488 
    C433.010406,416.117279 412.496582,421.625427 393.028442,430.355591 
    C387.030090,433.045441 380.383240,434.331818 373.980591,436.066284 
    C366.437256,438.109802 359.231171,436.475433 352.952484,432.350250 
    C345.057678,427.163422 337.740112,421.105103 330.007660,415.658142 
    C328.369232,414.503967 325.964264,413.728333 324.001099,413.885406 
    C319.209259,414.268799 314.365448,414.920898 309.739594,416.185547 
    C305.670563,417.297913 302.519623,416.321930 299.823517,413.582397 
    C292.319672,405.957703 283.692291,403.973694 273.779724,408.061249 
    C264.821411,411.755310 257.079590,409.729340 250.125549,403.359528 
    C247.409332,400.871521 244.369873,399.955811 240.560013,401.011078 
    C224.276352,405.521301 207.665268,405.299286 191.021896,403.921936 
    C188.199860,403.688385 186.529251,404.541870 184.945740,406.968018 
    C179.865463,414.751740 174.480850,422.336853 168.963806,430.362030 
    C162.144897,427.393707 155.542801,424.385925 148.838028,421.627777 
    C132.648972,414.968079 115.850006,410.862549 98.344490,413.573517 
    C87.127678,415.310608 78.325859,413.350281 71.595909,403.720276 
    C66.192169,395.988007 57.182373,398.441498 49.646404,396.865021 
    C48.864147,396.701385 47.591457,398.250854 46.732693,399.178070 
    C31.697309,415.412201 16.690983,431.673279 1.339171,447.964233 
    C1.000000,306.312439 1.000000,164.624878 1.000000,22.468658 
    C9.653016,31.861597 18.217272,41.804237 27.061754,51.491016 
    C28.285227,52.831001 30.981421,53.642555 32.845665,53.423115 
    C37.780830,52.842190 42.729916,51.885212 47.492054,50.468204 
    C52.220654,49.061188 56.165699,49.411469 59.546162,53.206589 
    C60.094685,53.822392 60.834728,54.263126 61.427158,54.844952 
    C70.010841,63.274956 80.324409,67.389389 92.214920,69.413750 
    C98.596832,70.500275 104.835327,74.541466 110.289345,78.438004 
    C117.304405,83.449791 123.551353,84.541969 130.758163,79.232803 
    C139.363190,72.893616 149.066055,73.718391 159.226456,74.334190 
    C174.431366,75.255745 188.547562,79.576836 202.743881,84.312744 
    C205.469849,85.222137 208.871780,85.122513 211.717682,84.451996 
    C218.495880,82.855011 225.313538,81.108437 231.774826,78.559341 
    C240.962006,74.934814 250.109375,75.142029 259.651550,76.355103 
    C264.198822,76.933197 269.080170,75.901749 273.659210,74.905426 
    C277.678833,74.030830 281.412415,71.910851 285.403931,70.824379 
    C297.133728,67.631584 306.675415,61.179501 314.867432,52.327400 
    C316.079102,51.018085 319.244904,50.063480 320.749329,50.709187 
    C332.598633,55.794910 341.916504,52.839806 351.777222,44.712486 
    C359.507355,38.341183 363.409637,30.053278 368.824127,21.879198 
    C379.217651,28.859716 389.508881,35.771538 398.958221,42.117920 
    C403.607941,37.920761 408.095642,34.209682 412.141266,30.066862 
    C414.013947,28.149204 415.503937,27.387703 418.130066,28.195478 
    C435.110718,33.418610 452.155212,38.436180 469.101257,43.767467 
    C471.024841,44.372627 472.993683,46.202530 474.040588,47.991718 
    C478.905884,56.306499 483.343781,64.871254 488.201599,73.190666 
    C489.267426,75.015976 491.308411,76.369202 493.115417,77.632095 
    C494.448853,78.563988 496.259064,78.797142 497.639191,79.681351 
    C508.846893,86.862045 519.897095,86.110283 530.911621,79.254288 
    C534.491943,77.025726 537.758667,77.259933 541.324585,79.853081 
    C545.475037,82.871269 550.323547,84.929977 554.471313,87.951210 
    C570.687195,99.762733 589.413940,105.206787 608.493896,109.930893 
    C617.842041,112.245438 627.177124,114.690018 636.344604,117.618767 
    C640.042847,118.800232 642.165710,117.957367 644.334656,115.189758 
    C646.487000,112.443359 649.152100,110.081230 651.167480,107.248276 
    C657.471130,98.387604 666.001587,92.723465 676.088074,89.106949 
    C677.799500,88.493324 679.499573,87.740898 681.046753,86.794296 
    C689.307068,81.740463 698.183105,80.202789 707.761719,81.318932 
    C709.588989,81.531860 712.245056,80.278725 713.498230,78.823334 
    C719.898315,71.390465 726.042786,63.731411 732.097778,56.011238 
    C733.901245,53.711849 735.699036,52.625469 738.750977,52.883572 
    C745.884094,53.486813 753.170471,53.025585 760.164490,54.279854 
    C765.412109,55.220936 770.656250,57.570789 775.270447,60.344109 
    C783.051819,65.021065 790.444458,66.064461 798.249817,60.868980 
    C804.210938,56.901020 810.470215,56.801739 817.200317,58.921764 
    C823.345886,60.857658 829.713684,62.088154 836.414673,63.735523 
    C844.007935,50.418797 851.719788,36.894135 859.715820,23.184734 
    C860.000000,26.692909 860.000000,30.385818 860.000000,34.539364 
    C853.983582,45.316162 847.965881,55.631527 841.952332,65.949387 
    C841.035645,67.522301 840.138977,69.106888 839.291504,70.584312 
    C830.100769,68.341713 821.143127,65.964569 812.084778,64.069046 
    C809.555603,63.539806 806.724670,64.395401 804.041748,64.700424 
    C803.406311,64.772667 802.741699,65.087791 802.205444,65.457825 
    C791.845703,72.606316 781.693909,71.767967 771.472412,65.004761 
    C761.757629,58.576859 750.543030,59.292095 739.629150,59.059013 
    C738.081116,59.025955 736.131104,60.644882 734.980896,62.014622 
    C728.772461,69.407600 722.842957,77.035416 716.603516,84.401184 
    C715.365356,85.862854 712.962646,87.686317 711.489685,87.390106 
    C698.286072,84.734726 687.394897,90.734108 675.756714,95.358002 
    C662.935791,100.451813 655.971130,111.213181 647.491699,120.570137 
    C644.252869,124.144142 641.662109,125.273788 636.917542,123.892685 
    C617.758911,118.315742 598.382019,113.478836 579.279358,107.725563 
    C573.195557,105.893257 567.596863,102.271400 561.982483,99.102936 
    C554.304565,94.769943 546.916504,89.918724 539.190552,85.678947 
    C537.348267,84.667969 534.033020,84.196053 532.459473,85.179337 
    C519.700928,93.151855 507.558136,91.861328 494.634796,85.041977 
    C488.635559,81.876312 483.795380,78.778450 480.848877,72.498154 
    C477.674622,65.732376 473.849762,59.253040 469.994049,52.837898 
    C468.921539,51.053440 466.953918,49.236820 465.021606,48.629761 
    C449.948151,43.894341 434.807556,39.364357 419.609619,35.045860 
    C418.032501,34.597729 415.412628,35.383865 414.191650,36.552982 
    C409.652130,40.899693 405.494965,45.645721 400.953613,50.499027 
    C390.864288,43.747585 381.086578,37.204655 371.005341,30.458603 
    C370.232147,31.439779 369.438019,32.088715 369.106476,32.921764 
    C363.681549,46.550964 350.062195,51.402672 340.002502,60.050293 
    C339.323517,60.633968 337.856903,60.472328 336.780640,60.379303 
    C335.464844,60.265572 334.042053,60.119232 332.893707,59.536930 
    C322.464752,54.248482 314.798492,58.200008 307.972321,66.384186 
    C306.179321,68.533859 303.282562,70.017326 300.610596,71.128418 
    C294.317413,73.745323 287.571686,75.394821 281.524078,78.453865 
    C271.741638,83.402100 261.809540,83.254173 251.425064,81.629608 
    C247.788376,81.060677 243.765320,81.385399 240.186356,82.323334 
    C230.056778,84.977989 220.091415,88.253815 209.997391,91.054337 
    C208.077408,91.587029 205.783615,91.408394 203.804459,90.947510 
    C200.578949,90.196365 197.352615,89.206261 194.332550,87.856293 
    C179.075729,81.036514 162.649078,80.819695 146.470398,79.261513 
    C144.801453,79.100777 142.911194,79.897072 141.307129,80.643585 
    C135.423035,83.381935 129.701813,86.489311 123.729149,89.006653 
    C121.915947,89.770874 119.273727,89.642799 117.391693,88.925331 
    C114.318550,87.753792 111.440025,85.938118 108.686150,84.086655 
    C98.715462,77.383263 87.820747,73.528198 75.931046,71.595245 
    C71.898399,70.939644 67.674400,67.804977 64.753693,64.670311 
    C56.865520,56.204292 48.022942,54.335331 37.502796,58.608322 
    C30.360071,61.509495 25.003696,60.055161 20.346962,53.207264 
    C15.793293,46.510925 9.783050,40.804405 4.390563,34.682438 
    C4.225353,34.494881 3.819638,34.519169 3.206615,34.363651 
    C3.206615,168.664780 3.206615,302.866119 3.206615,438.000366 
    C5.697645,435.383026 7.839374,433.230774 9.872382,430.980347 
    C21.358744,418.265289 32.762482,405.474579 44.374966,392.876129 
    C45.546516,391.605133 47.978874,390.763214 49.735264,390.898804 
    C55.531261,391.346375 61.306995,392.209045 67.042351,393.193024 
    C68.701088,393.477600 70.382156,394.476654 71.725113,395.556122 
    C73.661583,397.112579 75.610306,398.826630 77.006454,400.850922 
    C81.642868,407.573486 87.973701,409.028839 95.632538,407.923065 
    C117.459312,404.771698 137.847198,409.922333 157.541214,418.991882 
    C166.940704,423.320618 166.996216,423.199188 172.803864,414.501648 
    C173.913071,412.840515 175.299149,411.301971 176.091400,409.501740 
    C180.546921,399.377472 188.072464,396.205627 198.795105,398.198334 
    C213.683899,400.965302 228.233902,397.328186 242.838638,394.955933 
    C245.141724,394.581848 248.474243,394.997375 250.021255,396.446167 
    C258.094543,404.006622 267.041962,405.119751 277.018066,401.350250 
    C285.364899,398.196381 292.779541,399.393951 299.146790,405.926208 
    C303.551880,410.445435 308.801819,411.281006 314.665131,409.253204 
    C324.520905,405.844666 332.799164,407.609192 339.706299,415.993439 
    C342.276672,419.113495 346.276947,421.036102 349.550781,423.599792 
    C359.483826,431.378387 370.257416,432.665375 381.968750,428.205048 
    C395.314026,423.122375 408.684631,418.097382 422.138153,413.311310 
    C429.022797,410.862152 435.999207,408.431641 443.135162,406.982788 
    C454.665833,404.641663 463.113068,397.889465 471.118103,389.929871 
    C472.821747,388.235901 476.049042,387.091156 478.466125,387.258301 
    C493.574371,388.303223 508.748413,389.142670 523.705383,391.364655 
    C533.503723,392.820312 542.935181,396.641449 552.615662,399.065063 
    C555.179016,399.706818 558.497009,400.001831 560.716248,398.916992 
    C574.948853,391.959808 589.399902,391.513672 604.014221,396.976807 
    C613.708618,400.600800 621.454102,398.555023 628.597473,391.194427 
    C632.249207,387.431610 636.949829,382.413025 641.321411,382.265747 
    C645.642090,382.120117 650.538391,386.948181 654.474182,390.401367 
    C659.998901,395.248749 666.371460,396.546692 673.273193,396.920135 
    C676.594116,397.099792 679.976501,398.089905 683.202271,397.685608 
    C690.433411,396.779205 694.387207,400.654510 697.144531,406.363342 
    C702.109741,416.643005 709.899780,421.284088 721.538574,421.427338 
    C729.257690,421.522339 736.949341,424.153168 743.975891,418.913391 
    C754.819397,410.827301 766.949036,411.104675 779.142029,414.196106 
    C789.276917,416.765717 798.697144,415.253754 807.453247,410.366791 
    C818.480835,404.212067 827.636169,405.330627 836.376892,414.679932 
    C843.625977,422.433807 851.673645,429.441040 859.683777,436.889526 
    C860.000000,439.370575 860.000000,441.741119 860.000000,444.555847 
    z"/>
</svg>
